<?xml version="1.0" encoding="UTF-8" standalone="no"?>
<svg
   xmlns:dc="http://purl.org/dc/elements/1.1/"
   xmlns:cc="http://creativecommons.org/ns#"
   xmlns:rdf="http://www.w3.org/1999/02/22-rdf-syntax-ns#"
   xmlns:svg="http://www.w3.org/2000/svg"
   xmlns="http://www.w3.org/2000/svg"
   viewBox="0 0 1122.52 793.70135"
   height="793.70135"
   width="1122.52"
   xml:space="preserve"
   id="svg2"
   version="1.1"><metadata
     id="metadata8"><rdf:RDF><cc:Work
         rdf:about=""><dc:format>image/svg+xml</dc:format><dc:type
           rdf:resource="http://purl.org/dc/dcmitype/StillImage" /></cc:Work></rdf:RDF></metadata><defs
     id="defs6"><linearGradient
       id="linearGradient32"
       spreadMethod="pad"
       gradientTransform="matrix(44.237789,0,0,-44.237789,590.80847,168.71584)"
       gradientUnits="userSpaceOnUse"
       y2="0"
       x2="1"
       y1="0"
       x1="0"><stop
         id="stop26"
         offset="0"
         style="stop-opacity:1;stop-color:#9f6819" /><stop
         id="stop28"
         offset="0.497748"
         style="stop-opacity:1;stop-color:#e5c21d" /><stop
         id="stop30"
         offset="1"
         style="stop-opacity:1;stop-color:#9a6519" /></linearGradient><linearGradient
       id="linearGradient54"
       spreadMethod="pad"
       gradientTransform="matrix(121.28998,0,0,-121.28998,354.68118,322.79443)"
       gradientUnits="userSpaceOnUse"
       y2="0"
       x2="1"
       y1="0"
       x1="0"><stop
         id="stop48"
         offset="0"
         style="stop-opacity:1;stop-color:#9f6819" /><stop
         id="stop50"
         offset="0.497748"
         style="stop-opacity:1;stop-color:#e5c21d" /><stop
         id="stop52"
         offset="1"
         style="stop-opacity:1;stop-color:#9a6519" /></linearGradient><linearGradient
       id="linearGradient76"
       spreadMethod="pad"
       gradientTransform="matrix(62.279968,0,0,-62.279968,384.15579,471.77921)"
       gradientUnits="userSpaceOnUse"
       y2="0"
       x2="1"
       y1="0"
       x1="0"><stop
         id="stop70"
         offset="0"
         style="stop-opacity:1;stop-color:#9f6819" /><stop
         id="stop72"
         offset="0.497748"
         style="stop-opacity:1;stop-color:#e5c21d" /><stop
         id="stop74"
         offset="1"
         style="stop-opacity:1;stop-color:#9a6519" /></linearGradient><linearGradient
       id="linearGradient98"
       spreadMethod="pad"
       gradientTransform="matrix(66.271149,0,0,-66.271149,231.2188,169.71916)"
       gradientUnits="userSpaceOnUse"
       y2="0"
       x2="1"
       y1="0"
       x1="0"><stop
         id="stop92"
         offset="0"
         style="stop-opacity:1;stop-color:#9f6819" /><stop
         id="stop94"
         offset="0.497748"
         style="stop-opacity:1;stop-color:#e5c21d" /><stop
         id="stop96"
         offset="1"
         style="stop-opacity:1;stop-color:#9a6519" /></linearGradient><linearGradient
       id="linearGradient120"
       spreadMethod="pad"
       gradientTransform="matrix(56.751392,0,0,-56.751392,302.91388,157.66983)"
       gradientUnits="userSpaceOnUse"
       y2="0"
       x2="1"
       y1="0"
       x1="0"><stop
         id="stop114"
         offset="0"
         style="stop-opacity:1;stop-color:#9f6819" /><stop
         id="stop116"
         offset="0.497748"
         style="stop-opacity:1;stop-color:#e5c21d" /><stop
         id="stop118"
         offset="1"
         style="stop-opacity:1;stop-color:#9a6519" /></linearGradient><linearGradient
       id="linearGradient142"
       spreadMethod="pad"
       gradientTransform="matrix(57.233852,0,0,-57.233852,364.00507,157.66983)"
       gradientUnits="userSpaceOnUse"
       y2="0"
       x2="1"
       y1="0"
       x1="0"><stop
         id="stop136"
         offset="0"
         style="stop-opacity:1;stop-color:#9f6819" /><stop
         id="stop138"
         offset="0.497748"
         style="stop-opacity:1;stop-color:#e5c21d" /><stop
         id="stop140"
         offset="1"
         style="stop-opacity:1;stop-color:#9a6519" /></linearGradient><linearGradient
       id="linearGradient164"
       spreadMethod="pad"
       gradientTransform="matrix(65.307015,0,0,-65.307015,422.80713,157.489)"
       gradientUnits="userSpaceOnUse"
       y2="0"
       x2="1"
       y1="0"
       x1="0"><stop
         id="stop158"
         offset="0"
         style="stop-opacity:1;stop-color:#9f6819" /><stop
         id="stop160"
         offset="0.497748"
         style="stop-opacity:1;stop-color:#e5c21d" /><stop
         id="stop162"
         offset="1"
         style="stop-opacity:1;stop-color:#9a6519" /></linearGradient><linearGradient
       id="linearGradient186"
       spreadMethod="pad"
       gradientTransform="matrix(29.881912,0,0,-29.881912,491.36975,162.48932)"
       gradientUnits="userSpaceOnUse"
       y2="0"
       x2="1"
       y1="0"
       x1="0"><stop
         id="stop180"
         offset="0"
         style="stop-opacity:1;stop-color:#9f6819" /><stop
         id="stop182"
         offset="0.497748"
         style="stop-opacity:1;stop-color:#e5c21d" /><stop
         id="stop184"
         offset="1"
         style="stop-opacity:1;stop-color:#9a6519" /></linearGradient><linearGradient
       id="linearGradient208"
       spreadMethod="pad"
       gradientTransform="matrix(61.932934,0,0,-61.932934,521.85413,145.62048)"
       gradientUnits="userSpaceOnUse"
       y2="0"
       x2="1"
       y1="0"
       x1="0"><stop
         id="stop202"
         offset="0"
         style="stop-opacity:1;stop-color:#9f6819" /><stop
         id="stop204"
         offset="0.497748"
         style="stop-opacity:1;stop-color:#e5c21d" /><stop
         id="stop206"
         offset="1"
         style="stop-opacity:1;stop-color:#9a6519" /></linearGradient></defs><g
     transform="matrix(1.3333333,0,0,-1.3333333,0,793.70133)"
     id="g10"><path
       id="path12"
       style="fill:#040606;fill-opacity:1;fill-rule:nonzero;stroke:none"
       d="M 0,0 H 841.89 V 595.275 H 0 Z" /><g
       id="g14"><g
         id="g16"><g
           id="g22"><g
             id="g24"><path
               id="path34"
               style="fill:url(#linearGradient32);stroke:none"
               d="m 616.765,209.984 0.379,-0.31 c 2.59,-2.157 4.055,-5.181 4.055,-8.351 v 0 -55.178 c 0,-2.518 -0.235,-5.034 -0.724,-7.519 v 0 c -0.271,-1.569 -0.796,-3.105 -1.556,-4.544 v 0 c -0.706,-1.372 -1.829,-2.549 -3.223,-3.382 v 0 c -2.045,-1.129 -4.416,-1.668 -6.805,-1.537 v 0 c -2.461,-0.048 -4.834,0.801 -6.552,2.386 v 0 c -1.395,1.276 -2.354,2.861 -2.77,4.609 v 0 c -0.308,1.34 -0.399,2.697 -0.29,4.038 v 0 h -8.47 c 0.633,-2.321 1.773,-4.528 3.276,-6.522 v 0 c 1.593,-2.076 3.8,-3.71 6.371,-4.74 v 0 c 2.643,-1.046 5.503,-1.552 8.38,-1.471 v 0 h 0.055 c 2.678,-0.081 5.358,0.147 7.982,0.67 v 0 c 2.19,0.458 4.29,1.275 6.155,2.419 v 0 c 2.207,1.39 3.999,3.27 5.194,5.459 v 0 c 1.666,3.171 2.48,6.635 2.408,10.134 v 0 55.178 c 0,3.17 1.466,6.194 4.036,8.351 v 0 l 0.38,0.31 z" /></g></g></g></g><g
       id="g36"><g
         id="g38"><g
           id="g44"><g
             id="g46"><path
               id="path56"
               style="fill:url(#linearGradient54);stroke:none"
               d="m 354.681,415.534 v -10.101 h 90.45 c 0.36,0 0.7,0 1.04,0.01 v 0 c 0.24,0 0.47,0.011 0.71,0.011 v 0 c 0.999,0.01 1.95,0.029 2.87,0 v 0 h 3.27 c 5.92,0 10.71,-4.791 10.71,-10.71 v 0 -1.231 c 0.31,-2.18 0,-4.63 0,-6.8 v 0 -92.93 c 0.4,-19.049 -5.799,-33.22 -15.499,-42.1 v 0 c -16.281,-14.909 -45.72,-14.85 -63.56,-3.109 v 0 c -6.331,4.169 -11.861,9.71 -15.071,16.649 v 0 c -4.34,9.4 -4.42,19.54 -0.35,28.981 v 0 c 4.42,10.279 12,17.709 20.13,25.389 v 0 c 6.381,6.02 13.34,11.79 21.42,15.36 v 0 c 7.11,3.15 15.92,4.16 23.261,0.72 v 0 c 8.37,-3.91 11.809,-13.199 10.029,-21.9 v 0 c -2.02,-9.9 -10.35,-17.07 -19.32,-20.87 v 0 c -2.039,-0.86 -4.14,-1.56 -6.27,-2.119 v 0 c -7.21,-1.911 -14.829,-1.951 -22.35,-1.821 v 0 c -2.25,0.04 -4.51,0.3 -6.74,0.71 v 0 c -1.89,0.34 -2.29,0.651 -2.4,2.54 v 0 c -0.19,3.311 -0.065,6.711 -0.065,10.021 v 0 2.298 c -3.44,-2.83 -8.535,-11.187 -9.935,-14.818 v 0 l -0.15,-6.511 h 10.13 c 5.8,-0.009 11.95,0 15.67,0 v 0 c 20.76,0 36.34,3.61 46.51,16.68 v 0 c 1.55,2.071 3.16,4.69 4.15,7.96 v 0 c 2.611,8.53 1.84,18.16 -3.589,25.89 v 0 c -3.701,5.15 -8.481,7.89 -12.451,9.4 v 0 c -3.9,1.48 -9.049,2.54 -14.67,2.35 v 0 c -1.4,-0.04 -2.98,-0.17 -4.68,-0.44 v 0 c 3.13,1.42 6.171,2.86 8.88,4.51 v 0 c 3.2,1.92 6.52,4.43 9.01,7.99 v 0 c 1.14,1.63 2.14,3.53 2.85,5.72 v 0 c 1.839,6.25 1.11,13.481 -2.45,18.93 v 0 c -2.37,3.53 -5.569,5.801 -8.82,7.3 v 0 c -3.25,1.49 -6.99,2.4 -11.02,2.97 v 0 c -4.57,0.65 -8.939,0.76 -13.22,0.78 v 0 h -26.28 l 0.071,-60.058 c 2.929,2.72 6.309,5.291 10.129,8.241 v 0 l -0.07,7.367 c 0,5.78 0.03,11.56 0.04,17.34 v 0 c 0,2.89 -0.01,5.78 -0.02,8.67 v 0 c -0.01,1.59 -0.04,3.36 0.12,5.091 v 0 c 0.7,7.349 11.81,8.209 17.68,7.989 v 0 c 8.59,-0.32 18.79,-2.589 21.241,-12.13 v 0 c 2.979,-11.62 -8.971,-21.689 -16.791,-28.2 v 0 c -9.72,-8.09 -20.07,-15.42 -29.44,-23.94 v 0 c -13.72,-12.47 -25.16,-28.19 -25.16,-47.54 v 0 c 0,-3.81 0.69,-7.59 1.96,-11.16 v 0 c 0.051,-0.139 0.1,-0.26 0.15,-0.4 v 0 c 5.96,-16.451 21.01,-27.189 37.431,-31.7 v 0 c 23.869,-6.54 56.739,-2.04 71.599,19.91 v 0 c 7.961,11.75 10.17,26.49 10.09,40.401 v 0 l 0.059,111.689 c 0,5.92 -4.789,10.721 -10.71,10.721 v 0 z" /></g></g></g></g><g
       id="g58"><g
         id="g60"><g
           id="g66"><g
             id="g68"><path
               id="path78"
               style="fill:url(#linearGradient76);stroke:none"
               d="m 395.026,516.984 c -6,0 -10.87,-4.87 -10.87,-10.87 v 0 -79.539 h 62.279 v 79.539 c 0,6 -4.859,10.87 -10.869,10.87 v 0 z m 0.02,-80.219 v 67.149 c 0,1.701 1.38,3.07 3.07,3.07 v 0 h 1.33 c 1.689,0 3.06,-1.369 3.06,-3.07 v 0 -67.149 c 0,-1.691 -1.371,-3.06 -3.06,-3.06 v 0 h -1.33 c -1.69,0 -3.07,1.369 -3.07,3.06" /></g></g></g></g><g
       id="g80"><g
         id="g82"><g
           id="g88"><g
             id="g90"><path
               id="path100"
               style="fill:url(#linearGradient98);stroke:none"
               d="m 244.834,211.649 c -4.699,0 -11.325,0.122 -13.615,0.242 v 0 -1.205 h 0.241 c 3.857,0 5.784,-1.807 5.784,-5.542 v 0 -70.729 c 0,-3.736 -2.049,-5.543 -6.025,-5.664 v 0 -1.204 c 1.326,0.12 3.856,0.12 7.35,0.24 v 0 h 10.242 c 6.387,0 13.374,-0.24 17.833,-0.24 v 0 c 18.315,0 30.846,9.277 30.846,22.893 v 0 c 0,10.965 -8.315,19.52 -21.448,21.931 v 0 c 10.001,2.649 15.423,9.638 15.423,19.759 v 0 c 0,13.736 -10.001,19.761 -32.412,19.761 v 0 c -3.855,0 -9.037,-0.242 -14.219,-0.242 m 3.012,-4.817 c 0,2.167 1.086,3.252 3.254,3.252 v 0 h 7.711 c 14.218,0 21.57,-6.024 21.57,-17.713 v 0 c 0,-10.964 -6.749,-19.398 -15.665,-19.398 v 0 h -16.87 z m 0,-72.417 v 36.751 h 17.111 c 12.17,0 21.328,-9.158 21.328,-21.208 v 0 c 0,-11.687 -8.435,-20.605 -19.641,-20.605 v 0 h -13.856 c -3.254,0 -4.942,1.688 -4.942,5.062" /></g></g></g></g><g
       id="g102"><g
         id="g104"><g
           id="g110"><g
             id="g112"><path
               id="path122"
               style="fill:url(#linearGradient120);stroke:none"
               d="m 302.914,157.669 c 0,-18.917 11.928,-31.327 29.761,-31.327 v 0 c 12.17,0 21.929,5.784 26.99,16.147 v 0 l -1.084,1.444 c -4.699,-9.518 -13.013,-15.061 -22.17,-15.061 v 0 c -13.977,0 -22.774,12.651 -22.894,31.69 v 0 h 45.907 c 0,16.868 -10.965,28.436 -27.472,28.436 v 0 c -17.23,0 -29.038,-12.531 -29.038,-31.329 m 28.677,29.883 c 9.881,0 17.471,-10.242 17.953,-25.183 v 0 h -36.027 c 0.241,14.459 7.952,25.183 18.074,25.183" /></g></g></g></g><g
       id="g124"><g
         id="g126"><g
           id="g132"><g
             id="g134"><path
               id="path144"
               style="fill:url(#linearGradient142);stroke:none"
               d="m 368.343,177.31 7.47,-7.591 c 3.253,11.326 9.519,17.833 17.111,17.833 v 0 c 7.349,0 12.41,-6.145 12.41,-15.062 v 0 -0.36 c 0,-6.147 -3.374,-9.761 -11.447,-12.051 v 0 c -12.29,-3.493 -29.882,-3.013 -29.882,-17.351 v 0 c 0,-9.759 8.073,-16.386 19.761,-16.386 v 0 c 10.844,0 18.676,5.542 21.568,14.579 v 0 -4.939 c 0,-6.629 2.41,-9.64 7.712,-9.64 v 0 c 3.374,0 5.783,1.205 8.193,4.097 v 0 l -0.241,1.205 c -0.964,-0.965 -2.048,-1.568 -3.012,-1.568 v 0 c -1.446,0 -2.651,1.447 -2.651,4.579 v 0 34.944 c 0,12.29 -7.831,19.399 -21.207,19.399 v 0 c -10.242,0 -19.399,-4.217 -25.785,-11.688 m 6.145,-34.341 c 0,12.05 11.327,12.894 20.484,15.785 v 0 c 5.301,1.808 8.675,4.218 10.362,7.591 v 0 -17.23 c 0,-11.446 -7.591,-20.364 -17.351,-20.364 v 0 c -7.953,0 -13.495,5.904 -13.495,14.218" /></g></g></g></g><g
       id="g146"><g
         id="g148"><g
           id="g154"><g
             id="g156"><path
               id="path166"
               style="fill:url(#linearGradient164);stroke:none"
               d="m 471.969,187.552 c -1.929,0 -3.856,0.121 -5.905,0.241 v 0 -1.205 c 3.976,0 6.025,-2.771 6.025,-8.314 v 0 -21.447 c 0,-14.822 -9.158,-27.593 -19.882,-27.593 v 0 c -5.663,0 -10,3.614 -12.048,10.362 v 0 c -1.085,3.494 -1.326,6.988 -1.326,16.868 v 0 32.172 c -2.771,-0.843 -6.386,-1.084 -10.121,-1.084 v 0 c -1.928,0 -3.855,0.121 -5.906,0.241 v 0 -1.205 c 3.978,0 6.026,-2.771 6.026,-8.314 v 0 -22.05 c 0,-13.616 0.724,-29.882 18.797,-29.882 v 0 c 11.929,0 21.206,8.313 24.46,20.724 v 0 -20.363 c 2.772,0.844 6.265,1.084 10.121,1.084 v 0 c 1.929,0 3.856,-0.12 5.904,-0.24 v 0 1.204 c -3.975,0 -6.024,2.772 -6.024,8.314 v 0 51.571 c -2.772,-0.843 -6.387,-1.084 -10.121,-1.084" /></g></g></g></g><g
       id="g168"><g
         id="g170"><g
           id="g176"><g
             id="g178"><path
               id="path188"
               style="fill:url(#linearGradient186);stroke:none"
               d="m 498.839,197.432 v -9.639 h -7.469 v -1.807 h 7.469 v -47.595 c 0,-7.35 4.218,-12.049 10.725,-12.049 v 0 c 4.94,0 9.278,2.65 11.688,6.988 v 0 l -0.241,1.206 c -2.049,-3.255 -4.701,-5.061 -7.23,-5.061 v 0 c -3.253,0 -4.94,3.011 -4.94,9.277 v 0 47.234 h 10.724 v 1.807 h -10.724 v 10.844 c -3.133,-0.723 -6.266,-1.084 -10.002,-1.205" /></g></g></g></g><g
       id="g190"><g
         id="g192"><g
           id="g198"><g
             id="g200"><path
               id="path210"
               style="fill:url(#linearGradient208);stroke:none"
               d="m 576.437,187.311 c -4.941,0 -7.35,0.482 -7.35,0.482 v 0 -1.205 c 3.133,-0.602 4.699,-1.929 4.699,-3.856 v 0 c 0,-0.602 -0.12,-1.325 -0.482,-2.048 v 0 l -16.868,-40.486 -16.87,40.486 c -0.481,1.084 -0.723,2.169 -0.723,3.012 v 0 c 0,1.928 1.326,2.892 4.096,2.892 v 0 1.205 c -3.734,-0.241 -6.265,-0.482 -10.362,-0.482 v 0 c -4.096,0 -6.506,0.241 -10.723,0.482 v 0 -1.205 c 3.012,0 5.301,-1.929 6.989,-5.904 v 0 l 22.169,-53.378 -0.481,-1.446 c -3.494,-8.194 -11.446,-12.291 -25.304,-12.652 v 0 l 5.544,-9.759 c 9.277,2.047 15.422,7.59 19.76,17.953 v 0 l 24.701,59.282 c 1.326,3.012 4.097,5.061 8.555,5.904 v 0 1.205 c -2.771,-0.241 -4.458,-0.482 -7.35,-0.482" /></g></g></g></g></g></svg>